<svg xmlns="http://www.w3.org/2000/svg" viewBox="0 8.859999656677246 284.989990234375 37.0099983215332" data-asc="0.9052734375" width="284.989990234375" height="37.0099983215332"><defs/><g><g fill="#1f9ee3"><g transform="translate(0, 0)"><path d="M0 45.26L0 9.47L7.13 9.47L15.60 34.81Q16.77 38.35 17.31 40.11Q17.92 38.16 19.21 34.38L27.78 9.47L34.16 9.47L34.16 45.26L29.59 45.26L29.59 15.31L19.19 45.26L14.92 45.26L4.57 14.79L4.57 45.26L0 45.26ZM39.60 32.30Q39.60 25.10 43.60 21.63Q46.95 18.75 51.76 18.75Q57.10 18.75 60.50 22.25Q63.89 25.76 63.89 31.93Q63.89 36.94 62.39 39.81Q60.89 42.68 58.02 44.26Q55.15 45.85 51.76 45.85Q46.31 45.85 42.96 42.36Q39.60 38.87 39.60 32.30M44.12 32.30Q44.12 37.28 46.29 39.76Q48.46 42.24 51.76 42.24Q55.03 42.24 57.20 39.75Q59.38 37.26 59.38 32.15Q59.38 27.34 57.19 24.87Q55.00 22.39 51.76 22.39Q48.46 22.39 46.29 24.85Q44.12 27.32 44.12 32.30ZM85.86 45.26L85.86 41.99Q83.40 45.85 78.61 45.85Q75.51 45.85 72.91 44.14Q70.31 42.43 68.88 39.37Q67.46 36.30 67.46 32.32Q67.46 28.44 68.75 25.28Q70.04 22.12 72.63 20.43Q75.22 18.75 78.42 18.75Q80.76 18.75 82.59 19.74Q84.42 20.73 85.57 22.31L85.57 9.47L89.94 9.47L89.94 45.26L85.86 45.26M71.97 32.32Q71.97 37.30 74.07 39.77Q76.17 42.24 79.03 42.24Q81.91 42.24 83.92 39.88Q85.94 37.52 85.94 32.69Q85.94 27.37 83.89 24.88Q81.84 22.39 78.83 22.39Q75.90 22.39 73.94 24.78Q71.97 27.17 71.97 32.32ZM100.90 45.26L96.83 45.26L96.83 9.47L101.22 9.47L101.22 22.24Q104.00 18.75 108.33 18.75Q110.72 18.75 112.85 19.71Q114.99 20.68 116.37 22.42Q117.75 24.17 118.53 26.64Q119.31 29.10 119.31 31.91Q119.31 38.57 116.02 42.21Q112.72 45.85 108.11 45.85Q103.52 45.85 100.90 42.02L100.90 45.26M100.85 32.10Q100.85 36.77 102.12 38.84Q104.20 42.24 107.74 42.24Q110.62 42.24 112.72 39.73Q114.82 37.23 114.82 32.28Q114.82 27.20 112.81 24.78Q110.79 22.36 107.93 22.36Q105.05 22.36 102.95 24.87Q100.85 27.37 100.85 32.10ZM141.65 45.26L141.65 41.46Q138.62 45.85 133.42 45.85Q131.13 45.85 129.14 44.97Q127.15 44.09 126.18 42.76Q125.22 41.43 124.83 39.50Q124.56 38.21 124.56 35.40L124.56 19.34L128.96 19.34L128.96 33.72Q128.96 37.16 129.22 38.35Q129.64 40.09 130.98 41.08Q132.32 42.07 134.30 42.07Q136.28 42.07 138.01 41.05Q139.75 40.04 140.47 38.29Q141.19 36.55 141.19 33.23L141.19 19.34L145.58 19.34L145.58 45.26L141.65 45.26ZM150.71 37.52L155.05 36.84Q155.42 39.45 157.09 40.84Q158.76 42.24 161.77 42.24Q164.79 42.24 166.26 41.00Q167.72 39.77 167.72 38.11Q167.72 36.62 166.43 35.77Q165.53 35.18 161.94 34.28Q157.10 33.06 155.24 32.17Q153.37 31.27 152.40 29.70Q151.44 28.13 151.44 26.22Q151.44 24.49 152.23 23.01Q153.03 21.53 154.39 20.56Q155.42 19.80 157.19 19.27Q158.96 18.75 160.99 18.75Q164.04 18.75 166.35 19.63Q168.65 20.51 169.75 22.01Q170.85 23.51 171.26 26.03L166.97 26.61Q166.67 24.61 165.27 23.49Q163.87 22.36 161.30 22.36Q158.28 22.36 156.98 23.36Q155.69 24.37 155.69 25.71Q155.69 26.56 156.23 27.25Q156.76 27.95 157.91 28.42Q158.57 28.66 161.79 29.54Q166.46 30.79 168.30 31.58Q170.14 32.37 171.19 33.89Q172.24 35.40 172.24 37.65Q172.24 39.84 170.96 41.78Q169.68 43.73 167.26 44.79Q164.84 45.85 161.79 45.85Q156.74 45.85 154.09 43.75Q151.44 41.65 150.71 37.52ZM200.12 45.26L200.12 13.70L188.33 13.70L188.33 9.47L216.70 9.47L216.70 13.70L204.86 13.70L204.86 45.26L200.12 45.26ZM247.09 32.71L251.83 33.91Q250.34 39.75 246.47 42.81Q242.60 45.87 237.01 45.87Q231.23 45.87 227.60 43.52Q223.97 41.16 222.08 36.69Q220.19 32.23 220.19 27.10Q220.19 21.51 222.33 17.35Q224.46 13.18 228.41 11.02Q232.35 8.86 237.08 8.86Q242.46 8.86 246.12 11.60Q249.78 14.33 251.22 19.29L246.56 20.39Q245.31 16.48 242.94 14.70Q240.58 12.92 236.99 12.92Q232.86 12.92 230.09 14.89Q227.32 16.87 226.20 20.20Q225.07 23.54 225.07 27.08Q225.07 31.64 226.40 35.05Q227.73 38.45 230.54 40.14Q233.35 41.82 236.62 41.82Q240.60 41.82 243.36 39.53Q246.12 37.23 247.09 32.71ZM257.67 45.26L257.67 9.47L271.17 9.47Q274.73 9.47 276.61 9.81Q279.25 10.25 281.03 11.49Q282.81 12.72 283.90 14.94Q284.99 17.16 284.99 19.82Q284.99 24.39 282.08 27.55Q279.17 30.71 271.58 30.71L262.40 30.71L262.40 45.26L257.67 45.26M262.40 26.49L271.66 26.49Q276.25 26.49 278.17 24.78Q280.10 23.07 280.10 19.97Q280.10 17.72 278.97 16.13Q277.83 14.53 275.98 14.01Q274.78 13.70 271.56 13.70L262.40 13.70L262.40 26.49Z"/></g></g></g></svg>